<svg width="24" height="24" viewBox="0 0 24 24" fill="none" xmlns="http://www.w3.org/2000/svg">
<g clip-path="url(#clip0_1_1354)">
<path d="M16 16L12 12L8 16" stroke="#fff" stroke-width="2" stroke-linecap="round" stroke-linejoin="round"/>
<path d="M12 12V21" stroke="#fff" stroke-width="2" stroke-linecap="round" stroke-linejoin="round"/>
<path d="M20.39 18.39C21.3653 17.8583 22.1358 17.0169 22.5799 15.9986C23.0239 14.9804 23.1162 13.8432 22.8422 12.7667C22.5682 11.6901 21.9435 10.7355 21.0667 10.0534C20.1898 9.37137 19.1109 9.00072 18 8.99998H16.74C16.4373 7.82923 15.8732 6.74232 15.0899 5.82098C14.3067 4.89964 13.3248 4.16783 12.2181 3.68059C11.1113 3.19335 9.90854 2.96334 8.70011 3.00787C7.49167 3.05239 6.30906 3.37028 5.24117 3.93765C4.17328 4.50501 3.2479 5.30709 2.53461 6.28357C1.82132 7.26004 1.33868 8.38552 1.12297 9.57538C0.90726 10.7652 0.964096 11.9885 1.2892 13.1532C1.61431 14.318 2.19923 15.3938 2.99999 16.3" stroke="#fff" stroke-width="2" stroke-linecap="round" stroke-linejoin="round"/>
<path d="M16 16L12 12L8 16" stroke="#fff" stroke-width="2" stroke-linecap="round" stroke-linejoin="round"/>
</g>
<defs>
<clipPath id="clip0_1_1354">
<rect width="24" height="24" fill="white"/>
</clipPath>
</defs>
</svg>
