<svg width="73" height="73" viewBox="0 0 73 73" fill="none" xmlns="http://www.w3.org/2000/svg">
<rect x="0.898438" y="0.927734" width="72" height="72" rx="20" fill="#F9F9FF"/>
<path d="M36.9952 51.0232C32.3076 51.0232 27.62 51.0232 22.9323 51.0232C22.7033 51.0232 22.4714 51.0232 22.2414 50.9995C21.0679 50.8899 20.5961 50.0993 21.0965 49.0304C21.5308 48.1075 22.0045 47.2084 22.4645 46.2954C24.6359 41.9966 26.8073 37.6985 28.9788 33.4011C29.0459 33.2698 29.1159 33.1385 29.1939 33.0132C29.7407 32.1367 30.629 32.0133 31.3288 32.7694C31.8223 33.2984 32.2398 33.8926 32.68 34.4661C34.9173 37.3896 37.1545 40.3144 39.3917 43.2406C40.3688 44.5138 41.5996 44.5829 42.7475 43.438C43.317 42.8695 43.8737 42.2861 44.4501 41.7226C45.4895 40.7059 46.6689 40.7671 47.5178 41.9525C49.2213 44.3312 50.8825 46.7415 52.5515 49.1439C52.6819 49.3324 52.7819 49.5402 52.8476 49.7598C53.0095 50.3115 52.7805 50.7557 52.2209 50.9027C51.8699 50.9867 51.5097 51.0256 51.149 51.0182C46.4337 51.0261 41.7158 51.0278 36.9952 51.0232Z" fill="#D4D2E3"/>
<path d="M47.5079 27.4682C47.5067 28.3857 47.2331 29.2822 46.7217 30.0441C46.2104 30.8059 45.4844 31.3988 44.6357 31.7475C43.787 32.0962 42.8538 32.1851 41.9546 32.0028C41.0553 31.8206 40.2304 31.3754 39.5845 30.7238C38.9385 30.0722 38.5006 29.2434 38.3263 28.3426C38.1519 27.4418 38.2489 26.5094 38.6051 25.6638C38.9612 24.8182 39.5604 24.0974 40.3267 23.5928C41.093 23.0881 41.9919 22.8224 42.9094 22.8292C44.1312 22.8448 45.2979 23.3398 46.1581 24.2075C47.0183 25.0753 47.5031 26.2463 47.5079 27.4682Z" fill="#D4D2E3"/>
</svg>
